<svg width="80" height="80" viewBox="0 0 80 80" fill="none" xmlns="http://www.w3.org/2000/svg">
<circle cx="40" cy="40" r="40" fill="#FFE1CB"/>
<path d="M56.2718 34.4421V36.856V42.6325V49.6183V55.6735C56.2718 56.649 56.2491 57.629 56.2718 58.609V58.6494L57.6319 57.3008H56.6889H54.1228H50.3282H45.6993H40.6262H35.5077H30.7338H26.6988H23.7972C23.3393 57.3008 22.8769 57.2919 22.419 57.3008H22.3601L23.7202 58.6494V55.8803V51.4343V50.4139L22.3601 51.7625H26.2364H32.4067H33.8121C34.5466 51.7625 35.1722 51.1466 35.1722 50.4139V47.7212V43.4236V42.4257L33.8121 43.7742H37.6929H43.8541H45.2731C46.0076 43.7742 46.6332 43.1584 46.6332 42.4257V39.7329V35.4354V34.4374L45.2731 35.786H49.4668H56.0995H57.6319C58.3437 35.786 59.0237 35.1656 58.9919 34.4374C58.9602 33.7046 58.3935 33.0888 57.6319 33.0888H53.4382H46.8055H45.2731C44.5387 33.0888 43.9131 33.7047 43.9131 34.4374V37.1301V41.4277V42.4257L45.2731 41.0771H41.3924H35.2311H33.8121C33.0777 41.0771 32.452 41.6929 32.452 42.4257V45.1184V49.4159V50.4139L33.8121 49.0653H29.9358H23.7655H22.3601C21.6256 49.0653 21 49.6812 21 50.4139V53.1831V57.629V58.6494C21 59.3777 21.6211 59.998 22.3601 59.998H23.3031H25.8691H29.6638H34.2926H39.3658H44.4842H49.2582H53.2932H56.1947C56.6526 59.998 57.1151 60.0025 57.5729 59.998H57.6319C58.3663 59.998 58.9919 59.3822 58.9919 58.6494V56.2354V50.459V43.4732V37.418C58.9919 36.4425 59.0101 35.4625 58.9919 34.4825V34.4421C58.9919 33.7363 58.3663 33.062 57.6319 33.0935C56.8974 33.125 56.2718 33.6824 56.2718 34.4421Z" fill="#F47923"/>
<path d="M23.0451 42.6276C23.2899 42.4613 23.5302 42.2904 23.775 42.1241C24.4369 41.6656 25.0989 41.2071 25.7562 40.7486C26.7354 40.0698 27.7102 39.3955 28.6895 38.7167C29.8818 37.8896 31.0742 37.0624 32.2665 36.2352C33.5722 35.3316 34.8779 34.4236 36.1881 33.52C37.5074 32.6074 38.8267 31.6904 40.146 30.7779C41.3746 29.9237 42.6077 29.0741 43.8364 28.22C44.8746 27.5008 45.9128 26.7815 46.9556 26.0623C47.6991 25.5453 48.4427 25.0329 49.1907 24.5159C49.5443 24.2687 49.9025 24.0259 50.2561 23.7787C50.2697 23.7697 50.2879 23.7562 50.3015 23.7472C50.5961 23.5404 50.8274 23.2977 50.9271 22.9425C51.0178 22.6189 50.977 22.1918 50.7911 21.9041C50.4193 21.3287 49.5534 20.9871 48.9323 21.4186C48.6875 21.5849 48.4472 21.7558 48.2024 21.9221C47.5404 22.3806 46.8785 22.8391 46.2212 23.2976C45.242 23.9764 44.2672 24.6507 43.2879 25.3295C42.0955 26.1567 40.9032 26.9838 39.7109 27.811C38.4052 28.7146 37.0995 29.6226 35.7892 30.5262C34.47 31.4388 33.1507 32.3558 31.8314 33.2683C30.6028 34.1225 29.3696 34.9721 28.1409 35.8262C27.1028 36.5454 26.0645 37.2647 25.0218 37.9839C24.2783 38.5009 23.5347 39.0133 22.7867 39.5303C22.4331 39.7775 22.0749 40.0203 21.7212 40.2675C21.7076 40.2765 21.6895 40.29 21.6759 40.299C21.3812 40.5058 21.15 40.7485 21.0503 41.1037C20.9596 41.4273 21.0004 41.8544 21.1863 42.1421C21.558 42.713 22.424 43.0591 23.0451 42.6276Z" fill="#F47923"/>
<path d="M41.5913 22.6324C42.4482 22.7673 43.3096 22.9067 44.1664 23.0415C45.5446 23.2618 46.9228 23.4821 48.3011 23.7023C48.6184 23.7518 48.9312 23.8012 49.2486 23.8552C48.9313 23.3023 48.6139 22.7493 48.2966 22.1964C48.1606 23.046 48.02 23.9002 47.884 24.7497C47.6619 26.1163 47.4397 27.4829 47.2176 28.8495C47.1677 29.1641 47.1178 29.4743 47.0634 29.789C47.0045 30.1576 47.0045 30.4948 47.1994 30.8275C47.3626 31.1062 47.6891 31.3759 48.011 31.4478C48.36 31.5242 48.7499 31.5107 49.0582 31.313C49.3393 31.1331 49.6295 30.8454 49.6839 30.5083C49.8199 29.6587 49.9604 28.8045 50.0965 27.955C50.3186 26.5884 50.5408 25.2218 50.7629 23.8552C50.8128 23.5405 50.8626 23.2304 50.9171 22.9157C50.976 22.5605 50.9851 22.1919 50.781 21.8772C50.5997 21.5985 50.3095 21.3108 49.9695 21.2569C49.1126 21.122 48.2512 20.9826 47.3944 20.8478C46.0162 20.6275 44.638 20.4072 43.2597 20.187C42.9424 20.1375 42.6296 20.0881 42.3122 20.0341C41.9404 19.9757 41.6004 19.9757 41.2649 20.169C40.9838 20.3308 40.7118 20.6545 40.6392 20.9736C40.5622 21.3198 40.5758 21.7064 40.7753 22.0121C40.9566 22.2908 41.2468 22.5785 41.5913 22.6324L41.5913 22.6324Z" fill="#F47923"/>
</svg>
