<svg width="80" height="80" viewBox="0 0 80 80" fill="none" xmlns="http://www.w3.org/2000/svg">
<circle cx="40" cy="40" r="40" fill="#FFE1CB"/>
<path fill-rule="evenodd" clip-rule="evenodd" d="M61.6869 60H57.1185V27.0833H61.6869C62.9592 27.0833 64 28.1545 64 29.4641V57.6784C64.0004 58.9286 62.9592 59.9998 61.6869 59.9998V60ZM25.1374 60V27.0833H32.0194V21.1904C32.0194 20.5356 32.5398 20 33.176 20H46.8821C47.5182 20 48.0386 20.5356 48.0386 21.1904V27.0833H54.9206V60H25.1374ZM45.7254 22.381H34.2748V27.0831H45.7254V22.381ZM16 57.619V29.4048C16 28.0952 17.0408 27.024 18.3131 27.024H22.8815V59.9407H18.3131C17.0408 60.0001 16 58.9288 16 57.6193V57.619Z" fill="#F47923"/>
</svg>
