<svg width="80" height="80" viewBox="0 0 80 80" fill="none" xmlns="http://www.w3.org/2000/svg">
<circle cx="40" cy="40" r="40" fill="#FFE1CB"/>
<path d="M47.3211 44.9554C46.4819 44.9554 45.8033 45.6339 45.8033 46.4732C45.8033 47.3125 46.4819 47.9911 47.3211 47.9911C48.1604 47.9911 48.839 47.3125 48.839 46.4732C48.839 45.6339 48.1604 44.9554 47.3211 44.9554ZM56.4283 24.6429H46.964C46.964 23.2634 45.8435 22.1429 44.464 22.1429H40.8926C39.5131 22.1429 38.3926 23.2634 38.3926 24.6429H28.9283C28.1381 24.6429 27.4997 25.2812 27.4997 26.0714V35H23.5711C22.781 35 22.1426 35.6384 22.1426 36.4286V56.4286C22.1426 57.2187 22.781 57.8571 23.5711 57.8571H38.5711C39.3613 57.8571 39.9997 57.2187 39.9997 56.4286V55.7143H56.4283C57.2185 55.7143 57.8569 55.0759 57.8569 54.2857V26.0714C57.8569 25.2812 57.2185 24.6429 56.4283 24.6429ZM37.1426 55H24.9997V44.6429H37.1426V55ZM37.1426 41.7857H24.9997V37.8571H37.1426V41.7857ZM38.0354 29.6429V27.5H41.2497V25H44.1069V27.5H47.3211V29.6429H38.0354ZM46.0711 37.1429V39.6429C46.0711 39.8393 45.9104 40 45.714 40H43.5711C43.3747 40 43.214 39.8393 43.214 39.6429V37.1429C43.214 36.9464 43.3747 36.7857 43.5711 36.7857H45.714C45.9104 36.7857 46.0711 36.9464 46.0711 37.1429ZM47.3211 50.5804C45.0533 50.5804 43.214 48.7411 43.214 46.4732C43.214 44.2054 45.0533 42.3661 47.3211 42.3661C49.589 42.3661 51.4283 44.2054 51.4283 46.4732C51.4283 48.7411 49.589 50.5804 47.3211 50.5804ZM51.4283 39.6429C51.4283 39.8393 51.2676 40 51.0711 40H48.9283C48.7319 40 48.5711 39.8393 48.5711 39.6429V35.3571C48.5711 35.1607 48.7319 35 48.9283 35H51.0711C51.2676 35 51.4283 35.1607 51.4283 35.3571V39.6429ZM47.3211 42.3661C45.0533 42.3661 43.214 44.2054 43.214 46.4732C43.214 48.7411 45.0533 50.5804 47.3211 50.5804C49.589 50.5804 51.4283 48.7411 51.4283 46.4732C51.4283 44.2054 49.589 42.3661 47.3211 42.3661ZM47.3211 47.9911C46.4819 47.9911 45.8033 47.3125 45.8033 46.4732C45.8033 45.6339 46.4819 44.9554 47.3211 44.9554C48.1604 44.9554 48.839 45.6339 48.839 46.4732C48.839 47.3125 48.1604 47.9911 47.3211 47.9911Z" fill="#F47923"/>
</svg>
