<svg width="80" height="80" viewBox="0 0 80 80" fill="none" xmlns="http://www.w3.org/2000/svg">
<circle cx="40" cy="40" r="40" fill="#FFE1CB"/>
<path d="M18 30.4943V40.9085C18.0042 42.2881 18.5472 43.6104 19.5107 44.5859C20.4743 45.5615 21.7802 46.1113 23.1429 46.1155H31.7143V25.2872H23.1429C21.7787 25.2872 20.4708 25.8358 19.5061 26.8121C18.5418 27.7889 18 29.1131 18 30.4943Z" fill="#F47923"/>
<path d="M50.022 20.8956C48.6134 19.9255 46.8196 19.7302 45.2392 20.3749L35.1426 24.4538V46.9484L45.2392 51.0272C45.8454 51.2682 46.4909 51.3918 47.1422 51.3918C48.5075 51.3965 49.8184 50.8494 50.7839 49.8719C51.7494 48.8945 52.2897 47.5671 52.2851 46.1847V25.2007C52.2851 23.4739 51.4367 21.8606 50.022 20.8964V20.8956Z" fill="#F47923"/>
<path d="M21.4277 49.4124V54.793C21.4277 56.6535 22.4081 58.3725 23.9992 59.3023C25.5902 60.2326 27.551 60.2326 29.142 59.3023C30.7331 58.3725 31.7135 56.6535 31.7135 54.793V49.5859H23.142C22.5661 49.5902 21.9914 49.5321 21.4277 49.4124Z" fill="#F47923"/>
<path d="M64.2849 33.9617H59.142C58.5294 33.9617 57.9634 34.2926 57.6573 34.8295C57.3512 35.3665 57.3512 36.0283 57.6573 36.5652C57.9634 37.1022 58.5294 37.4331 59.142 37.4331H64.2849C64.8975 37.4331 65.4634 37.1022 65.7695 36.5652C66.0756 36.0283 66.0756 35.3665 65.7695 34.8295C65.4634 34.2926 64.8975 33.9617 64.2849 33.9617Z" fill="#F47923"/>
<path d="M59.1435 25.2832C59.409 25.2832 59.6707 25.2201 59.908 25.0992L63.3366 23.3635C63.7468 23.1601 64.0602 22.799 64.2063 22.3604C64.3525 21.9223 64.32 21.443 64.1156 21.0292C63.9113 20.615 63.5524 20.3008 63.1184 20.1563C62.6845 20.0114 62.2112 20.0482 61.804 20.2582L58.3754 21.9939C57.9105 22.2287 57.5757 22.6638 57.4651 23.178C57.3545 23.6917 57.48 24.2283 57.806 24.6378C58.1321 25.047 58.6242 25.2844 59.1434 25.2833L59.1435 25.2832Z" fill="#F47923"/>
<path d="M63.3374 48.0297L59.9088 46.2941C59.5013 46.0841 59.0283 46.0473 58.5944 46.1922C58.1601 46.3367 57.8012 46.6509 57.5968 47.065C57.3924 47.4788 57.3599 47.9581 57.5065 48.3963C57.6526 48.8349 57.9657 49.1959 58.3759 49.3993L61.8044 51.135C62.0417 51.2559 62.3038 51.319 62.5694 51.319C63.0886 51.3202 63.5803 51.0827 63.9067 50.6736C64.2327 50.2641 64.3582 49.7275 64.2473 49.2137C64.1367 48.6996 63.8019 48.2645 63.3373 48.0297L63.3374 48.0297Z" fill="#F47923"/>
</svg>
